<svg width="40" height="40" viewBox="44, 57, 48, 48" fill="none" xmlns="http://www.w3.org/2000/svg"><path fill-rule="evenodd" clip-rule="evenodd" d="M68 105c13.255 0 24-10.745 24-24S81.255 57 68 57 44 67.745 44 81s10.745 24 24 24z" fill="#fff" filter="url(#filter0_d)"/><path class="colored-area" d="M68 100.5c10.77 0 19.5-8.73 19.5-19.5S78.77 61.5 68 61.5 48.5 70.23 48.5 81s8.73 19.5 19.5 19.5z" fill="#08D9D6"/><path d="M73.24 76.138a1.323 1.323 0 1 1 1.872 1.871l-7.94 7.942a1.324 1.324 0 0 1-1.873 0l-4.411-4.412a1.323 1.323 0 1 1 1.871-1.872l3.476 3.476 7.006-7.005z" fill="#fff"/><defs><filter id="filter0_d" x="-20" y="0" width="176" height="176" filterUnits="userSpaceOnUse" color-interpolation-filters="sRGB"><feFlood flood-opacity="0" result="BackgroundImageFix"/><feColorMatrix in="SourceAlpha" values="0 0 0 0 0 0 0 0 0 0 0 0 0 0 0 0 0 0 127 0"/><feOffset dy="7"/><feGaussianBlur stdDeviation="32"/><feColorMatrix values="0 0 0 0 0 0 0 0 0 0 0 0 0 0 0 0 0 0 0.07 0"/><feBlend in2="BackgroundImageFix" result="effect1_dropShadow"/><feBlend in="SourceGraphic" in2="effect1_dropShadow" result="shape"/></filter></defs></svg>
