<svg width="161" height="42" viewBox="0 0 161 42" fill="none" xmlns="http://www.w3.org/2000/svg">
<path d="M3.00383 19.098H0.0218283V15.57H3.00383V8.262C3.00383 5.742 3.57783 3.81 4.72583 2.466C5.87383 1.122 7.55383 0.449998 9.76583 0.449998C10.3818 0.449998 11.0398 0.547999 11.7398 0.744C12.4398 0.911999 13.0558 1.164 13.5878 1.5L11.9078 4.356C11.4878 3.908 10.8998 3.684 10.1438 3.684C9.07983 3.684 8.26783 4.048 7.70783 4.776C7.17583 5.504 6.90983 6.68 6.90983 8.304V15.57H12.4538V19.098H6.90983V33H3.00383V19.098ZM34.2325 15.612V33H30.3265V30.144C29.7105 30.956 28.8145 31.712 27.6385 32.412C26.4625 33.084 25.1325 33.42 23.6485 33.42C21.9965 33.42 20.4985 33.07 19.1545 32.37C17.8385 31.642 16.7885 30.592 16.0045 29.22C15.2485 27.848 14.8705 26.21 14.8705 24.306C14.8705 22.402 15.2625 20.75 16.0465 19.35C16.8585 17.922 17.9365 16.83 19.2805 16.074C20.6525 15.29 22.1645 14.898 23.8165 14.898C25.3005 14.898 26.5885 15.22 27.6805 15.864C28.7725 16.508 29.6545 17.348 30.3265 18.384L30.6205 15.612H34.2325ZM24.6985 30.186C26.1265 30.186 27.3445 29.794 28.3525 29.01C29.3885 28.198 30.0465 27.106 30.3265 25.734V22.29C29.9905 21.058 29.2905 20.064 28.2265 19.308C27.1625 18.524 25.9445 18.132 24.5725 18.132C23.5365 18.132 22.5705 18.384 21.6745 18.888C20.8065 19.392 20.1065 20.106 19.5745 21.03C19.0705 21.926 18.8185 22.948 18.8185 24.096C18.8185 25.216 19.0845 26.238 19.6165 27.162C20.1485 28.086 20.8625 28.828 21.7585 29.388C22.6545 29.92 23.6345 30.186 24.6985 30.186ZM45.9469 33.378C44.6589 33.378 43.4269 33.154 42.2509 32.706C41.1029 32.258 40.1649 31.6 39.4369 30.732L41.1169 28.464C41.8169 29.136 42.5449 29.654 43.3009 30.018C44.0849 30.382 44.8549 30.564 45.6109 30.564C46.5349 30.564 47.2909 30.382 47.8789 30.018C48.4669 29.654 48.7609 29.094 48.7609 28.338C48.7609 27.75 48.5789 27.274 48.2149 26.91C47.8509 26.546 47.4309 26.28 46.9549 26.112C46.5069 25.944 45.7369 25.692 44.6449 25.356C41.6769 24.404 40.1929 22.71 40.1929 20.274C40.1929 18.818 40.7249 17.572 41.7889 16.536C42.8809 15.5 44.3929 14.982 46.3249 14.982C47.5569 14.982 48.6489 15.136 49.6009 15.444C50.5529 15.752 51.4349 16.242 52.2469 16.914L50.6929 19.308C50.2449 18.832 49.6709 18.454 48.9709 18.174C48.2989 17.894 47.6549 17.74 47.0389 17.712C46.2549 17.712 45.5829 17.908 45.0229 18.3C44.4629 18.664 44.1829 19.168 44.1829 19.812C44.1829 20.344 44.3649 20.792 44.7289 21.156C45.0929 21.492 45.4709 21.744 45.8629 21.912C46.2549 22.052 47.0249 22.304 48.1729 22.668C49.6009 23.144 50.7069 23.76 51.4909 24.516C52.3029 25.272 52.7089 26.294 52.7089 27.582C52.7089 29.262 52.1209 30.648 50.9449 31.74C49.7689 32.832 48.1029 33.378 45.9469 33.378ZM68.9714 14.94C70.5954 14.94 71.9394 15.43 73.0034 16.41C74.0674 17.362 74.6134 18.608 74.6414 20.148V33H70.6934V21.492C70.6374 20.512 70.3434 19.742 69.8114 19.182C69.2794 18.622 68.4814 18.328 67.4174 18.3C66.4094 18.3 65.4994 18.58 64.6874 19.14C63.8754 19.7 63.2314 20.484 62.7554 21.492C62.3074 22.5 62.0834 23.62 62.0834 24.852V33H58.1774V0.449998H61.9994V18.762C62.6434 17.614 63.5674 16.69 64.7714 15.99C66.0034 15.29 67.4034 14.94 68.9714 14.94ZM89.5402 30.06C90.9962 30.06 92.4102 29.556 93.7822 28.548L95.5882 31.446C94.6642 32.062 93.6562 32.552 92.5642 32.916C91.5002 33.252 90.4642 33.42 89.4562 33.42C87.5242 33.42 85.8302 33.028 84.3742 32.244C82.9462 31.432 81.8402 30.326 81.0562 28.926C80.2722 27.526 79.8802 25.944 79.8802 24.18C79.8802 22.472 80.3002 20.918 81.1402 19.518C82.0082 18.09 83.1842 16.97 84.6682 16.158C86.1522 15.318 87.7762 14.898 89.5402 14.898C91.8082 14.898 93.6982 15.57 95.2102 16.914C96.7502 18.23 97.8002 20.078 98.3602 22.458L84.5842 27.288C85.0882 28.156 85.7602 28.842 86.6002 29.346C87.4682 29.822 88.4482 30.06 89.5402 30.06ZM89.2462 18.006C87.6502 18.006 86.3342 18.566 85.2982 19.686C84.2622 20.806 83.7442 22.234 83.7442 23.97C83.7442 24.39 83.7582 24.712 83.7862 24.936L93.9082 21.198C93.4882 20.246 92.8862 19.476 92.1022 18.888C91.3462 18.3 90.3942 18.006 89.2462 18.006ZM106.993 19.728C107.441 18.776 108.071 17.936 108.883 17.208C109.723 16.48 110.605 15.92 111.529 15.528C112.453 15.136 113.265 14.926 113.965 14.898L113.797 18.804C112.537 18.748 111.389 19 110.353 19.56C109.345 20.12 108.547 20.904 107.959 21.912C107.399 22.892 107.119 23.942 107.119 25.062V33H103.213V15.612H106.699L106.993 19.728ZM136.619 15.612V33.126C136.619 34.722 136.213 36.164 135.401 37.452C134.589 38.74 133.427 39.762 131.915 40.518C130.431 41.274 128.681 41.652 126.665 41.652C124.901 41.652 123.375 41.358 122.087 40.77C120.827 40.182 119.553 39.314 118.265 38.166L120.575 35.478C121.527 36.374 122.479 37.046 123.431 37.494C124.383 37.97 125.433 38.208 126.581 38.208C128.513 38.208 129.997 37.746 131.033 36.822C132.097 35.898 132.643 34.652 132.671 33.084L132.713 29.808C132.069 30.9 131.117 31.782 129.857 32.454C128.625 33.098 127.197 33.42 125.573 33.42C123.977 33.42 122.507 33.014 121.163 32.202C119.819 31.39 118.741 30.284 117.929 28.884C117.145 27.484 116.753 25.93 116.753 24.222C116.753 22.458 117.159 20.876 117.971 19.476C118.811 18.048 119.931 16.928 121.331 16.116C122.731 15.304 124.229 14.898 125.825 14.898C127.309 14.898 128.681 15.192 129.941 15.78C131.201 16.368 132.139 17.124 132.755 18.048L133.049 15.612H136.619ZM126.707 30.186C128.191 30.186 129.479 29.78 130.571 28.968C131.663 28.156 132.377 27.092 132.713 25.776V22.332C132.321 21.072 131.579 20.064 130.487 19.308C129.395 18.524 128.135 18.132 126.707 18.132C124.999 18.132 123.571 18.692 122.423 19.812C121.275 20.932 120.701 22.36 120.701 24.096C120.701 25.216 120.967 26.238 121.499 27.162C122.031 28.086 122.759 28.828 123.683 29.388C124.607 29.92 125.615 30.186 126.707 30.186ZM151.556 30.06C153.012 30.06 154.426 29.556 155.798 28.548L157.604 31.446C156.68 32.062 155.672 32.552 154.58 32.916C153.516 33.252 152.48 33.42 151.472 33.42C149.54 33.42 147.846 33.028 146.39 32.244C144.962 31.432 143.856 30.326 143.072 28.926C142.288 27.526 141.896 25.944 141.896 24.18C141.896 22.472 142.316 20.918 143.156 19.518C144.024 18.09 145.2 16.97 146.684 16.158C148.168 15.318 149.792 14.898 151.556 14.898C153.824 14.898 155.714 15.57 157.226 16.914C158.766 18.23 159.816 20.078 160.376 22.458L146.6 27.288C147.104 28.156 147.776 28.842 148.616 29.346C149.484 29.822 150.464 30.06 151.556 30.06ZM151.262 18.006C149.666 18.006 148.35 18.566 147.314 19.686C146.278 20.806 145.76 22.234 145.76 23.97C145.76 24.39 145.774 24.712 145.802 24.936L155.924 21.198C155.504 20.246 154.902 19.476 154.118 18.888C153.362 18.3 152.41 18.006 151.262 18.006Z" fill="#828282"/>
</svg>
